<?xml version="1.0" standalone="no"?><!-- Generator: Gravit.io --><svg xmlns="http://www.w3.org/2000/svg" xmlns:xlink="http://www.w3.org/1999/xlink" style="isolation:isolate" viewBox="0 0 1000 1000" width="1000" height="1000"><defs><clipPath id="_clipPath_1Ys58v7q1MkDMw73hnk1WFjyMxl0nyc9"><rect width="1000" height="1000"/></clipPath></defs><g clip-path="url(#_clipPath_1Ys58v7q1MkDMw73hnk1WFjyMxl0nyc9)"><g id="Draig"><path d=" M 507.977 281.519 C 506.144 279.319 504.579 276.537 503.284 271.598 L 525 275.62 C 525 275.62 514.333 289.147 507.977 281.519 Z " fill-rule="evenodd" fill="none" vector-effect="non-scaling-stroke" stroke-width="0.5" stroke="rgb(0,0,0)" stroke-opacity="0.87" stroke-linejoin="round" stroke-linecap="butt" stroke-miterlimit="4"/></g><path d=" M 641.648 511.614 C 649.049 505.825 656.177 499.52 662.989 492.708 C 754.389 401.307 754.389 253.118 662.989 161.718 C 571.589 70.317 423.399 70.317 331.999 161.718 C 240.598 253.118 240.598 401.307 331.999 492.708 L 331.999 492.708 C 368.15 528.859 413.185 550.711 460.077 558.261 C 458.298 546.191 461.382 533.039 471.07 524.021 C 467.529 501.827 474.281 480.893 485.721 478.441 C 482.022 454.115 496.571 446.399 502.407 440.592 C 498.593 429.426 510.93 408.981 517.872 408.848 C 510.925 397.274 523.801 376.159 534.152 374.662 C 534.152 374.255 527.232 358.383 527.232 358.383 C 527.232 358.383 494.083 363.359 488.164 393.789 C 484.078 387.462 480.023 377.917 480.023 377.917 C 480.023 377.917 466.785 413.328 466.377 412.516 C 454.943 405.574 460.083 388.5 460.083 388.5 C 451.787 379.415 453.299 367.88 449.906 357.569 C 418.841 356.213 387.776 354.856 356.709 353.499 C 356.709 353.499 367.29 373.035 367.29 372.628 C 356.263 372.834 302.416 326.78 292 287.569 C 319.599 309.244 349.039 314.99 380.315 321.348 C 372.04 325.418 363.764 329.488 355.488 333.557 C 441.261 340.909 530.082 325.011 529.674 324.604 C 520.077 304.593 488.569 304.662 488.569 304.662 C 488.569 309.139 488.569 313.616 488.569 318.093 C 485.721 316.058 482.872 314.023 480.023 311.988 C 479.888 315.379 479.753 318.771 479.617 322.162 C 477.446 320.67 475.276 319.178 473.104 317.686 C 472.427 320.535 471.747 323.384 471.07 326.232 C 468.899 324.739 466.729 323.248 464.558 321.755 C 463.608 324.332 462.659 326.911 461.709 329.488 C 459.267 327.589 456.827 325.689 454.384 323.791 C 454.384 323.791 448.279 323.789 447.872 322.977 C 443.888 302.622 424.673 302.221 424.673 302.221 C 402.12 299.317 384.517 304.12 364.441 305.069 C 393.925 268.083 434.432 271.531 473.104 267.628 C 475.923 251.182 490.38 246.378 507.289 244.023 C 507.289 244.023 586.65 248.093 587.057 248.093 C 597.267 234.614 628.976 228.965 628.976 228.965 C 640.099 223.403 652.449 225.806 662.348 212.279 C 659.765 230.755 659.634 234.527 658.278 245.651 C 661.671 246.058 665.061 246.465 668.453 246.872 C 659.228 252.841 646.941 261.26 637.714 267.229 C 627.444 282.786 629.428 283.027 633.86 291.232 C 636.98 296.659 640.101 302.085 643.221 307.511 C 659.046 312.387 670.583 319.099 674.152 329.488 C 657.033 327.436 644.573 330.622 644.849 338.034 C 645.186 343.492 658.182 345.923 663.473 349.178 C 673.302 358.391 676.527 366.504 677 377.917 C 664.384 377.24 647.914 358.399 639.151 375.883 C 634.969 384.436 639.592 396.018 650.546 399.895 C 670.636 405.399 672.522 432.86 672.114 432.86 C 671.709 432.86 627.984 403.676 630.186 430.922 C 629.456 442.958 635.058 445.635 639.558 449.139 C 652.658 453.976 663.833 459.638 662.348 473.557 C 643.503 466.768 634.565 472.092 632.233 482.918 C 634.676 489.972 637.115 497.025 639.558 504.081 C 641.202 506.338 641.866 508.865 641.648 511.614 Z  M 178.117 373.667 C 174.143 344.056 174.143 313.186 178.117 280.758 C 195.176 168.242 269.949 72.895 375.154 29.506 C 480.358 -13.884 600.607 1.031 692.023 68.808 C 715.727 87.484 737.987 109.804 758.802 135.587 C 827.966 226.652 844.072 347.408 801.192 453.417 C 758.312 559.426 662.782 635.026 549.755 652.396 L 549.755 710.465 L 631.051 710.465 L 631.051 780.147 L 549.755 780.147 L 549.755 867.249 L 593 825 L 633 865.333 L 503.301 995 L 374 866 L 415 825 L 456.846 867.249 L 456.846 780.147 L 375.55 780.147 L 375.55 710.465 L 456.846 710.465 L 456.846 652.396 C 311.666 633.066 197.448 518.848 178.117 373.667 L 178.117 373.667 Z " fill="none" vector-effect="non-scaling-stroke" stroke-width="0.5" stroke="rgb(0,0,0)" stroke-opacity="0.87" stroke-linejoin="miter" stroke-linecap="butt" stroke-miterlimit="4"/></g></svg>